<mxfile host="app.diagrams.net" agent="Mozilla/5.0 (Windows NT 10.0; Win64; x64) AppleWebKit/537.36 (KHTML, like Gecko) Chrome/129.0.0.0 Safari/537.36" version="24.7.17">
  <diagram name="PÃ¡gina-1" id="_VqCtZ3f_s2Z_i8LZG4P">
    <mxGraphModel dx="2501" dy="746" grid="1" gridSize="10" guides="1" tooltips="1" connect="1" arrows="1" fold="1" page="1" pageScale="1" pageWidth="827" pageHeight="1169" math="0" shadow="0">
      <root>
        <mxCell id="0" />
        <mxCell id="1" parent="0" />
        <mxCell id="IUA1S0paA89Y15pxOdZ5-4" style="edgeStyle=orthogonalEdgeStyle;rounded=0;orthogonalLoop=1;jettySize=auto;html=1;entryX=0;entryY=0.5;entryDx=0;entryDy=0;" parent="1" source="IUA1S0paA89Y15pxOdZ5-1" target="IUA1S0paA89Y15pxOdZ5-2" edge="1">
          <mxGeometry relative="1" as="geometry" />
        </mxCell>
        <mxCell id="GiWi7TtYlwEXHkTLjwEc-1" style="edgeStyle=orthogonalEdgeStyle;rounded=0;orthogonalLoop=1;jettySize=auto;html=1;" edge="1" parent="1" source="IUA1S0paA89Y15pxOdZ5-1" target="IUA1S0paA89Y15pxOdZ5-6">
          <mxGeometry relative="1" as="geometry" />
        </mxCell>
        <mxCell id="IUA1S0paA89Y15pxOdZ5-1" value="Customer Service&lt;div&gt;&lt;br&gt;&lt;/div&gt;" style="image;aspect=fixed;perimeter=ellipsePerimeter;html=1;align=center;shadow=0;dashed=0;fontColor=#4277BB;labelBackgroundColor=default;fontSize=12;spacingTop=3;image=img/lib/ibm/applications/microservice.svg;" parent="1" vertex="1">
          <mxGeometry x="189.5" y="90" width="82.2" height="60" as="geometry" />
        </mxCell>
        <mxCell id="IUA1S0paA89Y15pxOdZ5-3" style="edgeStyle=orthogonalEdgeStyle;rounded=0;orthogonalLoop=1;jettySize=auto;html=1;entryX=1;entryY=0.5;entryDx=0;entryDy=0;" parent="1" source="IUA1S0paA89Y15pxOdZ5-2" target="IUA1S0paA89Y15pxOdZ5-1" edge="1">
          <mxGeometry relative="1" as="geometry" />
        </mxCell>
        <mxCell id="IUA1S0paA89Y15pxOdZ5-10" value="" style="edgeStyle=orthogonalEdgeStyle;rounded=0;orthogonalLoop=1;jettySize=auto;html=1;" parent="1" source="IUA1S0paA89Y15pxOdZ5-2" target="IUA1S0paA89Y15pxOdZ5-7" edge="1">
          <mxGeometry relative="1" as="geometry" />
        </mxCell>
        <mxCell id="IUA1S0paA89Y15pxOdZ5-20" style="edgeStyle=orthogonalEdgeStyle;rounded=0;orthogonalLoop=1;jettySize=auto;html=1;entryX=0;entryY=1;entryDx=0;entryDy=0;" parent="1" source="IUA1S0paA89Y15pxOdZ5-2" target="IUA1S0paA89Y15pxOdZ5-14" edge="1">
          <mxGeometry relative="1" as="geometry">
            <Array as="points">
              <mxPoint x="510" y="120" />
              <mxPoint x="510" y="451" />
            </Array>
          </mxGeometry>
        </mxCell>
        <mxCell id="IUA1S0paA89Y15pxOdZ5-2" value="&lt;div&gt;Product Service&lt;/div&gt;" style="image;aspect=fixed;perimeter=ellipsePerimeter;html=1;align=center;shadow=0;dashed=0;fontColor=#4277BB;labelBackgroundColor=default;fontSize=12;spacingTop=3;image=img/lib/ibm/applications/microservice.svg;" parent="1" vertex="1">
          <mxGeometry x="390" y="90" width="82.2" height="60" as="geometry" />
        </mxCell>
        <mxCell id="IUA1S0paA89Y15pxOdZ5-6" value="customersdb" style="dashed=0;outlineConnect=0;html=1;align=center;labelPosition=center;verticalLabelPosition=bottom;verticalAlign=top;shape=mxgraph.weblogos.mongodb" parent="1" vertex="1">
          <mxGeometry x="210" y="240" width="41.2" height="86.2" as="geometry" />
        </mxCell>
        <mxCell id="IUA1S0paA89Y15pxOdZ5-7" value="productsdb" style="dashed=0;outlineConnect=0;html=1;align=center;labelPosition=center;verticalLabelPosition=bottom;verticalAlign=top;shape=mxgraph.weblogos.mongodb" parent="1" vertex="1">
          <mxGeometry x="410.5" y="270" width="41.2" height="86.2" as="geometry" />
        </mxCell>
        <mxCell id="IUA1S0paA89Y15pxOdZ5-12" value="" style="group" parent="1" vertex="1" connectable="0">
          <mxGeometry x="680" y="80" width="82.20000000000005" height="226.20000000000005" as="geometry" />
        </mxCell>
        <mxCell id="IUA1S0paA89Y15pxOdZ5-11" value="" style="edgeStyle=orthogonalEdgeStyle;rounded=0;orthogonalLoop=1;jettySize=auto;html=1;" parent="IUA1S0paA89Y15pxOdZ5-12" source="IUA1S0paA89Y15pxOdZ5-5" target="IUA1S0paA89Y15pxOdZ5-8" edge="1">
          <mxGeometry relative="1" as="geometry" />
        </mxCell>
        <mxCell id="IUA1S0paA89Y15pxOdZ5-5" value="&lt;div&gt;Account Service&lt;/div&gt;" style="image;aspect=fixed;perimeter=ellipsePerimeter;html=1;align=center;shadow=0;dashed=0;fontColor=#4277BB;labelBackgroundColor=default;fontSize=12;spacingTop=3;image=img/lib/ibm/applications/microservice.svg;" parent="IUA1S0paA89Y15pxOdZ5-12" vertex="1">
          <mxGeometry y="10" width="82.2" height="60" as="geometry" />
        </mxCell>
        <mxCell id="IUA1S0paA89Y15pxOdZ5-8" value="accountsdb&lt;div&gt;&lt;br&gt;&lt;/div&gt;" style="dashed=0;outlineConnect=0;html=1;align=center;labelPosition=center;verticalLabelPosition=bottom;verticalAlign=top;shape=mxgraph.weblogos.mongodb" parent="IUA1S0paA89Y15pxOdZ5-12" vertex="1">
          <mxGeometry x="20.5" y="140" width="41.2" height="86.2" as="geometry" />
        </mxCell>
        <mxCell id="IUA1S0paA89Y15pxOdZ5-13" value="" style="edgeStyle=orthogonalEdgeStyle;rounded=0;orthogonalLoop=1;jettySize=auto;html=1;" parent="1" source="IUA1S0paA89Y15pxOdZ5-14" target="IUA1S0paA89Y15pxOdZ5-15" edge="1">
          <mxGeometry relative="1" as="geometry" />
        </mxCell>
        <mxCell id="IUA1S0paA89Y15pxOdZ5-14" value="&lt;div&gt;Credit Service&lt;/div&gt;" style="image;aspect=fixed;perimeter=ellipsePerimeter;html=1;align=center;shadow=0;dashed=0;fontColor=#4277BB;labelBackgroundColor=default;fontSize=12;spacingTop=3;image=img/lib/ibm/applications/microservice.svg;" parent="1" vertex="1">
          <mxGeometry x="680" y="400" width="82.2" height="60" as="geometry" />
        </mxCell>
        <mxCell id="IUA1S0paA89Y15pxOdZ5-15" value="creditsdb" style="dashed=0;outlineConnect=0;html=1;align=center;labelPosition=center;verticalLabelPosition=bottom;verticalAlign=top;shape=mxgraph.weblogos.mongodb" parent="1" vertex="1">
          <mxGeometry x="700.5" y="540" width="41.2" height="86.2" as="geometry" />
        </mxCell>
        <mxCell id="IUA1S0paA89Y15pxOdZ5-21" value="" style="endArrow=classic;startArrow=classic;html=1;rounded=0;exitX=1;exitY=0.5;exitDx=0;exitDy=0;" parent="1" source="IUA1S0paA89Y15pxOdZ5-2" target="IUA1S0paA89Y15pxOdZ5-5" edge="1">
          <mxGeometry width="50" height="50" relative="1" as="geometry">
            <mxPoint x="390" y="510" as="sourcePoint" />
            <mxPoint x="440" y="460" as="targetPoint" />
            <Array as="points">
              <mxPoint x="556" y="120" />
            </Array>
          </mxGeometry>
        </mxCell>
        <mxCell id="IUA1S0paA89Y15pxOdZ5-22" value="&lt;font style=&quot;font-size: 24px;&quot;&gt;&lt;b&gt;&lt;u&gt;SYSTEM BANK&lt;/u&gt;&lt;/b&gt;&lt;/font&gt;" style="text;html=1;align=center;verticalAlign=middle;whiteSpace=wrap;rounded=0;" parent="1" vertex="1">
          <mxGeometry x="-150" y="20" width="280" height="110" as="geometry" />
        </mxCell>
        <mxCell id="IUA1S0paA89Y15pxOdZ5-29" value="" style="edgeStyle=orthogonalEdgeStyle;rounded=0;orthogonalLoop=1;jettySize=auto;html=1;" parent="1" source="IUA1S0paA89Y15pxOdZ5-27" target="IUA1S0paA89Y15pxOdZ5-28" edge="1">
          <mxGeometry relative="1" as="geometry" />
        </mxCell>
        <mxCell id="IUA1S0paA89Y15pxOdZ5-32" style="edgeStyle=orthogonalEdgeStyle;rounded=0;orthogonalLoop=1;jettySize=auto;html=1;" parent="1" source="IUA1S0paA89Y15pxOdZ5-27" edge="1">
          <mxGeometry relative="1" as="geometry">
            <mxPoint x="760" y="120" as="targetPoint" />
            <Array as="points">
              <mxPoint x="841" y="120" />
              <mxPoint x="841" y="121" />
            </Array>
          </mxGeometry>
        </mxCell>
        <mxCell id="IUA1S0paA89Y15pxOdZ5-33" style="edgeStyle=orthogonalEdgeStyle;rounded=0;orthogonalLoop=1;jettySize=auto;html=1;entryX=1;entryY=0.5;entryDx=0;entryDy=0;" parent="1" source="IUA1S0paA89Y15pxOdZ5-27" target="IUA1S0paA89Y15pxOdZ5-14" edge="1">
          <mxGeometry relative="1" as="geometry">
            <Array as="points">
              <mxPoint x="911" y="310" />
              <mxPoint x="841" y="310" />
              <mxPoint x="841" y="430" />
            </Array>
          </mxGeometry>
        </mxCell>
        <mxCell id="IUA1S0paA89Y15pxOdZ5-27" value="Transaction Service" style="image;aspect=fixed;perimeter=ellipsePerimeter;html=1;align=center;shadow=0;dashed=0;fontColor=#4277BB;labelBackgroundColor=default;fontSize=12;spacingTop=3;image=img/lib/ibm/applications/microservice.svg;" parent="1" vertex="1">
          <mxGeometry x="870" y="230" width="82.2" height="60" as="geometry" />
        </mxCell>
        <mxCell id="IUA1S0paA89Y15pxOdZ5-28" value="transactionsdb&lt;div&gt;&lt;br&gt;&lt;/div&gt;" style="dashed=0;outlineConnect=0;html=1;align=center;labelPosition=center;verticalLabelPosition=bottom;verticalAlign=top;shape=mxgraph.weblogos.mongodb" parent="1" vertex="1">
          <mxGeometry x="1230" y="216.89999999999998" width="41.2" height="86.2" as="geometry" />
        </mxCell>
      </root>
    </mxGraphModel>
  </diagram>
</mxfile>
